<svg xmlns="http://www.w3.org/2000/svg" width="41" height="41" viewBox="0 0 41 41"><circle cx="21" cy="22" r="18" fill="#fff"/><path d="M30.688 29.613H26.4v-6.9c0-1.738-.625-2.913-2.175-2.913-1.175 0-1.888.8-2.2 1.563-.125.275-.138.662-.138 1.05v7.2h-4.325s.125-11.688 0-12.875h4.325v1.8c.575-.875 1.588-2.175 3.863-2.175 2.825 0 4.938 1.887 4.938 5.85v7.4zM13.063 14.988c-1.5 0-2.376-1-2.376-2.25s1-2.25 2.376-2.25c1.5 0 2.374 1 2.5 2.25 0 1.25-1 2.25-2.5 2.25m2.124 14.625h-4.25V16.738h4.25v12.875zm5.5-29.5c-11 0-20 8.875-20 19.937 0 11.05 9 20 20 20 11.045 0 20-8.95 20-20 0-11.063-8.954-19.938-20-19.938" fill="#066c9a"/></svg>
