<svg xmlns="http://www.w3.org/2000/svg" width="41" height="41" viewBox="0 0 41 41"><circle cx="22" cy="22" r="18" fill="#fff"/><path d="M28.6 16.813c.01.176.013.35.013.53 0 5.42-4.125 11.67-11.675 11.67-2.338 0-4.463-.675-6.338-1.838h1c2 0 3.75-.65 5.125-1.75-1.75 0-3.375-1.225-3.875-2.85.25 0 .5.125.75.125.375 0 .75 0 1.125-.15-1.875-.375-3.25-2.037-3.25-4.025.5.313 1.125.5 1.875.513-1.125-.725-1.875-1.988-1.875-3.41 0-.753.25-1.453.625-2.065 2 2.485 4.988 4.117 8.4 4.288-.125-.3-.125-.61-.125-.933 0-2.266 1.837-4.103 4.112-4.103 1.176 0 2.238.5 2.99 1.3.945-.238 1.825-.575 2.623-1.05-.313.962-.96 1.762-1.81 2.275.83-.1 1.623-.326 2.36-.65-.55.824-1.247 1.545-2.05 2.124M20.65.938C9.6.938.6 9.85.6 20.888c0 11.05 9 20.05 20.05 20.05 11.038 0 20-9 20-20.05 0-11.038-8.962-19.95-20-19.95" fill="#2aa9e0"/></svg>
