<svg xmlns="http://www.w3.org/2000/svg" width="41" height="41" viewBox="0 0 41 41"><circle cx="22" cy="22" r="18" fill="#fff"/><path d="M23.1 25c-1.24 0-2.413-.67-2.813-1.425 0 0-.662 2.64-.8 3.15-.5 1.812-1.962 3.612-2.074 3.762-.125.125-.25.125-.275 0 0-.237-.4-2.512 0-4.37.225-.932 1.475-6.255 1.475-6.255s-.363-.737-.363-1.825c0-1.7.988-2.975 2.213-2.975 1.05 0 1.547.788 1.547 1.725 0 1.05-.673 2.625-1.01 4.088-.288 1.212.613 2.2 1.81 2.2 2.178 0 3.64-2.788 3.64-6.1 0-2.525-1.7-4.4-4.775-4.4-3.487 0-5.663 2.6-5.663 5.5 0 1 .3 1.7.763 2.25.213.25.237.35.163.638 0 .212-.175.725-.238.925-.125.287-.313.4-.575.287-1.6-.65-2.35-2.412-2.35-4.387 0-3.263 2.75-7.288 8.214-7.288 4.42 0 7.31 3.225 7.31 6.625 0 4.513-2.516 7.875-6.2 7.875M21.033.5C9.974.5.974 9.5.974 20.55s9 19.95 20.065 19.95c11.033 0 19.933-8.9 19.933-19.95C40.973 9.5 32.073.5 21.033.5" fill="#ca2027"/></svg>
